<?xml version="1.0" standalone="no"?>
<!DOCTYPE svg PUBLIC "-//W3C//DTD SVG 20010904//EN"
 "http://www.w3.org/TR/2001/REC-SVG-20010904/DTD/svg10.dtd">
<svg version="1.0" xmlns="http://www.w3.org/2000/svg"
 width="308.000000pt" height="90.000000pt" viewBox="0 0 308.000000 90.000000"
 preserveAspectRatio="xMidYMid meet">
<metadata>
Created by potrace 1.16, written by Peter Selinger 2001-2019
</metadata>
<g transform="translate(0.000000,90.000000) scale(0.100000,-0.100000)"
fill="#000000" stroke="none">
<path d="M169 821 c-67 -21 -99 -65 -99 -135 0 -61 70 -131 151 -151 35 -9 98
-62 110 -93 13 -33 -11 -69 -57 -88 -30 -13 -39 -12 -72 1 -47 20 -88 59 -113
108 -24 45 -34 46 -48 6 -12 -35 -6 -52 36 -91 122 -116 303 -74 303 71 0 64
-33 101 -127 146 -43 20 -90 48 -106 63 -53 50 -26 120 53 137 53 12 117 -40
134 -107 9 -40 34 -35 42 7 8 42 -10 74 -58 103 -38 23 -112 35 -149 23z m-33
-172 c14 -13 62 -42 107 -64 56 -28 88 -50 104 -74 25 -38 30 -88 10 -115 -11
-15 -12 -12 -12 23 0 52 -36 90 -118 126 -34 15 -76 38 -94 51 -36 28 -58 83
-47 122 7 27 7 27 16 -9 5 -21 21 -48 34 -60z"/>
<path d="M846 814 c-21 -12 -25 -19 -17 -27 6 -6 11 -38 11 -70 0 -52 -2 -58
-17 -52 -96 37 -201 -20 -243 -131 -25 -67 -25 -87 0 -142 15 -33 29 -47 62
-62 24 -11 54 -20 68 -20 35 0 86 34 109 71 l20 32 3 -44 c3 -43 4 -44 38 -44
30 0 34 3 31 20 -2 11 -4 123 -5 250 -2 252 -2 251 -60 219z m46 -236 c2 -128
0 -237 -3 -241 -3 -4 -13 -5 -22 -1 -15 5 -17 30 -17 233 0 125 3 231 7 234 3
4 12 7 19 7 10 0 14 -52 16 -232z m-55 -18 c-7 -110 -61 -210 -113 -210 -54 0
-89 72 -78 160 6 47 38 105 64 116 20 10 113 21 124 16 5 -3 6 -39 3 -82z"/>
<path d="M1255 819 c-19 -9 -20 -20 -20 -172 0 -151 -2 -165 -24 -207 -48 -92
-90 -112 -135 -67 -50 50 -41 179 15 233 19 18 44 30 71 33 48 7 60 34 18 39
-40 6 -99 -17 -141 -55 -52 -47 -85 -145 -68 -205 6 -22 21 -51 33 -63 29 -29
95 -50 129 -41 39 9 85 53 94 89 7 30 8 29 13 -23 l5 -55 35 0 c30 0 34 3 31
20 -3 11 -6 124 -7 250 -2 244 -3 247 -49 224z m35 -221 c0 -117 3 -223 6
-235 7 -26 -23 -45 -36 -23 -4 7 -6 103 -5 214 1 110 -1 211 -6 223 -5 14 -4
23 4 27 36 14 37 10 37 -206z"/>
<path d="M1390 817 c-15 -8 -23 -20 -20 -28 3 -8 5 -116 5 -242 l0 -227 35 0
35 0 0 103 c0 98 2 106 30 153 27 43 35 49 65 49 30 0 37 -5 52 -35 21 -45 40
-179 32 -231 l-7 -39 42 0 c22 0 41 1 41 3 0 1 -7 55 -15 119 -21 169 -56 228
-136 228 -30 0 -43 -7 -68 -35 -17 -19 -33 -35 -36 -35 -4 0 -6 46 -5 103 1
56 1 108 1 115 -1 16 -19 15 -51 -1z m40 -237 c0 -126 0 -233 0 -237 0 -5 -9
-8 -21 -8 -20 0 -20 5 -22 233 -1 147 2 234 8 236 34 15 35 9 35 -224z"/>
<path d="M2507 753 c-4 -3 -7 -17 -7 -29 0 -14 -10 -30 -25 -40 -28 -18 -32
-39 -10 -48 12 -4 15 -26 15 -111 0 -153 25 -204 102 -205 40 0 93 36 102 70
4 11 9 29 12 40 10 38 -24 21 -48 -22 -27 -49 -69 -64 -87 -31 -14 27 -16 292
-2 326 18 45 14 57 -17 57 -16 0 -32 -3 -35 -7z m47 -11 c6 -11 -24 -72 -36
-72 -5 0 -2 -7 6 -16 13 -12 16 -40 16 -143 0 -96 4 -132 15 -147 21 -28 18
-35 -9 -23 -38 18 -49 55 -54 179 -2 63 -8 120 -13 126 -6 7 -2 17 10 28 10 9
21 30 25 47 5 27 28 39 40 21z"/>
<path d="M461 657 c-23 -12 -23 -14 -23 -172 l0 -160 38 0 37 0 -2 164 c-1 91
-5 169 -7 173 -7 11 -15 10 -43 -5z"/>
<path d="M1858 653 c-52 -33 -61 -83 -15 -83 19 0 16 -4 -13 -21 -49 -29 -73
-65 -78 -120 -4 -43 -1 -51 26 -79 57 -56 143 -35 182 45 39 81 12 177 -56
200 -39 12 -39 12 -24 30 13 16 66 20 88 7 22 -15 32 -74 32 -194 l0 -118 34
0 35 0 -5 128 c-6 140 -15 173 -52 202 -31 25 -115 27 -154 3z m76 -119 c36
-35 9 -148 -38 -160 -41 -10 -60 0 -74 38 -18 46 -3 82 47 115 40 27 45 28 65
7z"/>
<path d="M2128 664 c-4 -3 -2 -19 3 -36 7 -27 6 -232 -3 -283 -3 -17 3 -20 36
-20 l39 0 -2 136 c-2 133 -2 137 21 153 35 25 77 21 88 -8 5 -13 6 -33 3 -44
-2 -11 0 -22 5 -26 15 -9 72 14 72 30 0 28 -28 82 -48 93 -31 17 -107 14 -123
-5 -11 -14 -13 -14 -21 0 -9 15 -58 22 -70 10z"/>
<path d="M2848 653 c-52 -32 -61 -83 -15 -83 20 0 19 -2 -8 -19 -55 -34 -78
-67 -83 -120 -4 -46 -2 -53 26 -81 35 -35 84 -40 133 -14 72 37 89 176 29 236
-16 15 -38 28 -49 28 -26 0 -27 16 -2 30 31 16 66 12 87 -11 16 -18 19 -39 21
-153 1 -72 2 -134 3 -138 0 -5 15 -8 34 -8 l33 0 -4 118 c-5 161 -9 177 -44
206 -24 21 -41 26 -82 26 -31 0 -63 -7 -79 -17z m96 -132 c3 -5 3 -30 0 -55
-8 -55 -44 -96 -84 -96 -34 0 -49 17 -57 63 -9 59 69 129 119 105 9 -4 19 -12
22 -17z"/>
</g>
</svg>
